<svg width="61" height="61" viewBox="0 0 61 61" fill="none" xmlns="http://www.w3.org/2000/svg">
<path d="M59.4533 1.70778C59.1998 1.45556 58.8986 1.25546 58.567 1.11892C58.2355 0.982387 57.88 0.912109 57.521 0.912109C57.162 0.912109 56.8066 0.982387 56.475 1.11892C56.1435 1.25546 55.8423 1.45556 55.5888 1.70778L30.2294 26.879L4.86994 1.70778C4.35748 1.19923 3.66243 0.913527 2.93769 0.913527C2.21296 0.913527 1.51791 1.19923 1.00544 1.70778C0.492978 2.21634 0.205078 2.90608 0.205078 3.62528C0.205078 4.34449 0.492978 5.03423 1.00544 5.54278L26.3703 30.7086L1.00544 55.8744C0.492978 56.383 0.205078 57.0727 0.205078 57.792C0.205078 58.5112 0.492978 59.2009 1.00544 59.7095C1.51791 60.218 2.21296 60.5037 2.93769 60.5037C3.66243 60.5037 4.35748 60.218 4.86994 59.7095L30.2294 34.5382L55.5888 59.7095C56.1012 60.218 56.7963 60.5037 57.521 60.5037C58.2458 60.5037 58.9408 60.218 59.4533 59.7095C59.9657 59.2009 60.2536 58.5112 60.2536 57.792C60.2536 57.0727 59.9657 56.383 59.4533 55.8744L34.0884 30.7086L59.4533 5.54278C59.7074 5.2912 59.9091 4.99234 60.0467 4.6633C60.1843 4.33426 60.2551 3.98152 60.2551 3.62528C60.2551 3.26904 60.1843 2.9163 60.0467 2.58727C59.9091 2.25823 59.7074 1.95936 59.4533 1.70778Z" fill="current"/>
</svg>
